<mxfile host="65bd71144e">
    <diagram id="3vbN_o8fRc30SsEcl3De" name="1">
        <mxGraphModel dx="1118" dy="790" grid="1" gridSize="10" guides="1" tooltips="1" connect="1" arrows="1" fold="1" page="1" pageScale="1" pageWidth="850" pageHeight="1100" math="0" shadow="0">
            <root>
                <mxCell id="0"/>
                <mxCell id="1" parent="0"/>
                <mxCell id="10" style="edgeStyle=none;html=1;exitX=0.5;exitY=1;exitDx=0;exitDy=0;exitPerimeter=0;fontSize=16;fontColor=#FFFFFF;strokeColor=#000000;" parent="1" source="2" target="7" edge="1">
                    <mxGeometry relative="1" as="geometry"/>
                </mxCell>
                <mxCell id="2" value="&lt;b style=&quot;font-size: 16px;&quot;&gt;&lt;font style=&quot;font-size: 16px;&quot;&gt;Start&lt;/font&gt;&lt;/b&gt;" style="strokeWidth=2;html=1;shape=mxgraph.flowchart.terminator;whiteSpace=wrap;fillColor=#FF3333;fontColor=#ffffff;strokeColor=#B20000;fontStyle=0;fontSize=16;" parent="1" vertex="1">
                    <mxGeometry x="351.25" y="270" width="137.5" height="50" as="geometry"/>
                </mxCell>
                <mxCell id="4" value="&lt;b&gt;if condition1:&lt;br&gt;&lt;span style=&quot;white-space: pre&quot;&gt;&#9;&lt;/span&gt;operation1&lt;br&gt;else:&lt;br&gt;&lt;span style=&quot;white-space: pre&quot;&gt;&#9;&lt;/span&gt;operation2&lt;br&gt;operation3&lt;br&gt;&lt;/b&gt;" style="text;html=1;align=left;verticalAlign=middle;resizable=0;points=[];autosize=1;strokeColor=none;fillColor=none;fontSize=16;labelBorderColor=none;fontColor=#FFFFFF;" parent="1" vertex="1">
                    <mxGeometry x="20" y="280" width="130" height="100" as="geometry"/>
                </mxCell>
                <mxCell id="7" value="condition1" style="strokeWidth=2;html=1;shape=mxgraph.flowchart.decision;whiteSpace=wrap;labelBorderColor=none;fontSize=16;fillColor=#008a00;strokeColor=#005700;fontColor=#ffffff;fontStyle=1" parent="1" vertex="1">
                    <mxGeometry x="360" y="400" width="120" height="120" as="geometry"/>
                </mxCell>
                <mxCell id="13" value="operation1" style="rounded=0;whiteSpace=wrap;html=1;labelBorderColor=none;fontSize=16;fontColor=#000000;fillColor=#f0a30a;strokeColor=#BD7000;fontStyle=1" parent="1" vertex="1">
                    <mxGeometry x="125" y="530" width="120" height="40" as="geometry"/>
                </mxCell>
                <mxCell id="14" value="operation2" style="rounded=0;whiteSpace=wrap;html=1;labelBorderColor=none;fontSize=16;fontColor=#000000;fillColor=#f0a30a;strokeColor=#BD7000;fontStyle=1" parent="1" vertex="1">
                    <mxGeometry x="605" y="530" width="120" height="40" as="geometry"/>
                </mxCell>
                <mxCell id="23" value="" style="endArrow=classic;html=1;fontSize=16;fontColor=#FFFFFF;strokeColor=#000000;" parent="1" edge="1">
                    <mxGeometry width="50" height="50" relative="1" as="geometry">
                        <mxPoint x="180" y="460" as="sourcePoint"/>
                        <mxPoint x="180" y="530" as="targetPoint"/>
                    </mxGeometry>
                </mxCell>
                <mxCell id="24" value="" style="endArrow=none;html=1;fontSize=16;fontColor=#FFFFFF;strokeColor=#000000;" parent="1" edge="1">
                    <mxGeometry width="50" height="50" relative="1" as="geometry">
                        <mxPoint x="180" y="460" as="sourcePoint"/>
                        <mxPoint x="360" y="460" as="targetPoint"/>
                    </mxGeometry>
                </mxCell>
                <mxCell id="25" value="" style="endArrow=none;html=1;fontSize=16;fontColor=#FFFFFF;exitX=1;exitY=0.5;exitDx=0;exitDy=0;exitPerimeter=0;strokeColor=#000000;" parent="1" source="7" edge="1">
                    <mxGeometry width="50" height="50" relative="1" as="geometry">
                        <mxPoint x="487.5" y="459.77" as="sourcePoint"/>
                        <mxPoint x="660" y="460.06" as="targetPoint"/>
                    </mxGeometry>
                </mxCell>
                <mxCell id="26" value="" style="endArrow=classic;html=1;fontSize=16;fontColor=#FFFFFF;entryX=0.5;entryY=0;entryDx=0;entryDy=0;strokeColor=#000000;" parent="1" edge="1">
                    <mxGeometry width="50" height="50" relative="1" as="geometry">
                        <mxPoint x="660" y="460" as="sourcePoint"/>
                        <mxPoint x="660" y="530" as="targetPoint"/>
                    </mxGeometry>
                </mxCell>
                <mxCell id="28" style="edgeStyle=none;html=1;exitX=0.5;exitY=1;exitDx=0;exitDy=0;fontSize=16;fontColor=#FFFFFF;strokeColor=#000000;" parent="1" edge="1">
                    <mxGeometry relative="1" as="geometry">
                        <mxPoint x="419.66666666666674" y="700" as="targetPoint"/>
                        <mxPoint x="420" y="620" as="sourcePoint"/>
                    </mxGeometry>
                </mxCell>
                <mxCell id="29" value="operation3" style="rounded=0;whiteSpace=wrap;html=1;labelBorderColor=none;fontSize=16;fontColor=#000000;fillColor=#f0a30a;strokeColor=#BD7000;fontStyle=1" parent="1" vertex="1">
                    <mxGeometry x="360" y="700" width="120" height="40" as="geometry"/>
                </mxCell>
                <mxCell id="giYrK4AdPSDytcwWiuQL-29" value="" style="endArrow=none;html=1;strokeColor=#000000;" parent="1" edge="1">
                    <mxGeometry width="50" height="50" relative="1" as="geometry">
                        <mxPoint x="180" y="570" as="sourcePoint"/>
                        <mxPoint x="180" y="620" as="targetPoint"/>
                    </mxGeometry>
                </mxCell>
                <mxCell id="giYrK4AdPSDytcwWiuQL-30" value="" style="endArrow=none;html=1;strokeColor=#000000;" parent="1" edge="1">
                    <mxGeometry width="50" height="50" relative="1" as="geometry">
                        <mxPoint x="660" y="570" as="sourcePoint"/>
                        <mxPoint x="660" y="620" as="targetPoint"/>
                    </mxGeometry>
                </mxCell>
                <mxCell id="giYrK4AdPSDytcwWiuQL-31" value="" style="endArrow=none;html=1;strokeColor=#000000;" parent="1" edge="1">
                    <mxGeometry width="50" height="50" relative="1" as="geometry">
                        <mxPoint x="660" y="620" as="sourcePoint"/>
                        <mxPoint x="180" y="620" as="targetPoint"/>
                    </mxGeometry>
                </mxCell>
            </root>
        </mxGraphModel>
    </diagram>
    <diagram id="HDvjTJleSz4VmTnYED9R" name="2">
        <mxGraphModel dx="1118" dy="790" grid="1" gridSize="10" guides="1" tooltips="1" connect="1" arrows="1" fold="1" page="1" pageScale="1" pageWidth="850" pageHeight="1100" math="0" shadow="0">
            <root>
                <mxCell id="VugjiUq84hQ5dGGGW8jP-0"/>
                <mxCell id="VugjiUq84hQ5dGGGW8jP-1" parent="VugjiUq84hQ5dGGGW8jP-0"/>
                <mxCell id="ftlkmOREDc-FCtSrlEtA-2" style="edgeStyle=none;html=1;strokeColor=#000000;" parent="VugjiUq84hQ5dGGGW8jP-1" source="ftlkmOREDc-FCtSrlEtA-0" edge="1">
                    <mxGeometry relative="1" as="geometry">
                        <mxPoint x="410" y="400" as="targetPoint"/>
                    </mxGeometry>
                </mxCell>
                <mxCell id="ftlkmOREDc-FCtSrlEtA-0" value="" style="whiteSpace=wrap;html=1;aspect=fixed;strokeColor=#6F0000;fillColor=#a20025;fontColor=#ffffff;" parent="VugjiUq84hQ5dGGGW8jP-1" vertex="1">
                    <mxGeometry x="370" y="240" width="80" height="80" as="geometry"/>
                </mxCell>
                <mxCell id="ftlkmOREDc-FCtSrlEtA-4" value="" style="rhombus;whiteSpace=wrap;html=1;strokeColor=#000000;fillColor=#FFFF00;" parent="VugjiUq84hQ5dGGGW8jP-1" vertex="1">
                    <mxGeometry x="370" y="400" width="80" height="80" as="geometry"/>
                </mxCell>
            </root>
        </mxGraphModel>
    </diagram>
</mxfile>